<svg width="14" height="14" viewBox="0 0 14 14" fill="none" xmlns="http://www.w3.org/2000/svg">
<path d="M6.16794 6.3299C6.16794 8.07831 6.59457 8.64826 8.28995 9.42679C9.79851 10.1195 10.1088 9.0081 10.1088 7.77609C10.1088 7.17616 10.2468 6.47344 9.95724 5.92087C9.40853 4.8738 9.76732 5.10121 8.59309 4.6938C8.00885 4.4911 4.65404 3.23321 4.36592 4.35782C4.12104 5.31365 4.34908 6.53238 4.34908 7.51314C4.34908 8.00794 4.24213 8.60762 4.36592 9.09081C4.51998 9.69214 5.17444 10.1801 5.25851 10.7999C5.32435 11.2854 6.69529 12.7525 7.24578 12.8889C8.8728 13.2921 9.76714 12.513 11.0182 11.9101C12.3251 11.2804 11.9682 9.79469 12.6013 8.69639C13.0695 7.88421 13.102 5.75374 12.8203 4.89831C12.753 4.69426 11.4712 3.83041 11.1698 3.56899C10.7609 3.21433 10.4528 2.80102 10.0414 2.44417C8.9805 1.52392 8.75394 0.733248 6.9258 1.08563C5.542 1.35236 1.41033 3.91131 1.31764 5.27812C1.23236 6.53565 1.20987 7.70585 1.03134 8.94473C0.802228 10.5345 1.88299 9.9401 2.53021 11.0629" stroke="black" stroke-linecap="round" stroke-linejoin="round"/>
</svg>
